<svg xmlns="http://www.w3.org/2000/svg" width="3467" height="1782" viewBox="0 0 1920 284" fill="none">
  <path opacity="0.5" d="M-223 139.166H439.366C439.366 139.166 439.366 259.026 439.366 271.23C439.366 283.434 452.863 282.998 452.863 282.998H795.294C795.294 282.998 808.791 283.434 808.791 271.23C808.791 259.026 808.791 23.0215 808.791 12.7681C808.791 1 822.288 1 822.288 1H1113.73C1113.73 1 1126.73 1 1126.73 12.3322C1126.73 22.2084 1126.73 259.026 1126.73 271.23C1126.73 283.434 1140.22 282.998 1140.22 282.998H1474.16C1474.16 282.998 1487.65 283.434 1487.65 271.23C1487.65 259.026 1487.65 139.166 1487.65 139.166H2244" stroke="#1E2746" stroke-width="2"/>
</svg>